# 3ds Max Wavefront OBJ Exporter v0.97b - (c)2007 guruware
# 创建的文件:23.02.2022 20:13:18

mtllib forearm.mtl

#
# object forearm
#

v  -1.3584 -0.6439 0.6054
v  -2.4414 -0.8006 -0.0798
v  -1.4265 -0.7599 -0.1155
v  -0.5489 -0.5654 0.1860
v  -2.4123 -0.6774 0.6426
v  -3.5748 -0.5663 0.4200
v  -2.2745 0.1735 0.7802
v  -1.3793 0.4572 0.0876
v  -2.3026 0.5268 0.1380
v  -3.4850 0.2217 0.5491
v  -1.3907 0.1083 0.7308
v  -0.5834 0.0303 0.2932
v  -2.4694 -0.4474 -0.7220
v  -1.4151 -0.4109 -0.7586
v  -0.5796 -0.4598 -0.4102
v  -0.5571 -0.6360 -0.1343
v  -3.6083 -0.4312 -0.3815
v  -6.8929 -0.1781 -0.0360
v  -6.8912 -0.4280 0.4066
v  -6.7891 0.2963 0.5232
v  -6.8268 0.2054 0.0247
v  -3.5185 0.3568 -0.2525
v  -2.3317 0.4036 -0.5843
v  -0.6140 0.1359 -0.3029
v  -1.4475 0.3412 -0.6333
v  -0.6058 0.2065 0.0173
v  -0.5598 -0.2894 0.3631
v  -0.6032 -0.1401 -0.4800
v  0.2643 -0.0862 -0.5149
v  0.2535 0.1899 -0.3377
v  0.4657 -0.1496 -0.1005
v  0.2616 0.2605 -0.0175
v  0.2841 0.0843 0.2584
v  0.3077 -0.2354 0.3282
v  0.3186 -0.5114 0.1512
v  0.3104 -0.5820 -0.1691
v  0.2880 -0.4059 -0.4450
v  -0.1784 -0.0823 -0.6720
v  -0.1938 0.3082 -0.4217
v  -0.1822 0.4080 0.0314
v  -0.1504 0.1589 0.4216
v  -0.1170 -0.2933 0.5203
v  -0.1017 -0.6837 0.2699
v  -0.1133 -0.7836 -0.1831
v  -0.1450 -0.5345 -0.5733
# 45 vertices

vn 0.8043 -0.0931 0.5868
vn 0.6454 -0.7311 -0.2212
vn 0.8011 -0.5923 -0.0861
vn 0.7414 -0.4212 0.5224
vn 0.7164 -0.4980 0.4887
vn 0.5884 -0.3918 0.7073
vn -0.2253 0.5081 0.8313
vn -0.5538 0.8316 0.0413
vn -0.6916 0.7130 0.1157
vn -0.1644 0.4516 0.8769
vn -0.2012 0.7541 0.6252
vn -0.2838 0.6136 0.7368
vn 0.0946 -0.6537 -0.7508
vn 0.3093 -0.4778 -0.8222
vn 0.2780 -0.6604 -0.6976
vn 0.0470 -0.9830 0.1773
vn 0.0318 -0.6372 -0.7700
vn -0.3265 -0.8587 -0.3951
vn 0.2291 -0.7961 0.5602
vn -0.6673 0.1769 0.7234
vn -0.9275 -0.1811 -0.3269
vn -0.7713 0.1696 -0.6134
vn -0.7604 0.2234 -0.6099
vn -0.7645 0.3719 -0.5266
vn -0.6101 0.5328 -0.5864
vn -0.9091 -0.1653 0.3824
vn 0.3511 0.0644 0.9341
vn -0.4138 -0.1945 -0.8893
vn 0.1067 0.3574 -0.9278
vn -0.2130 0.7370 -0.6414
vn 0.5594 0.7451 -0.3632
vn -0.1906 0.9743 -0.1204
vn 0.1606 0.9302 0.3301
vn 0.6350 0.6306 0.4462
vn 0.9547 0.2510 0.1598
vn 0.9324 0.0138 -0.3613
vn 0.5811 0.0579 -0.8118
vn -0.3529 -0.1824 -0.9177
vn -0.7799 0.3246 -0.5351
vn -0.7501 0.6415 0.1609
vn -0.2808 0.5826 0.7627
vn 0.3529 0.1824 0.9177
vn 0.7799 -0.3246 0.5351
vn 0.7501 -0.6415 -0.1609
vn 0.2808 -0.5826 -0.7627
# 45 vertex normals

o forearm
g forearm
usemtl wire_088144225
s 8192
f -45//-45 -44//-44 -43//-43 -42//-42 
f -41//-41 -40//-40 -44//-44 -45//-45 
s 8
f -39//-39 -38//-38 -37//-37 -36//-36 
f -35//-35 -34//-34 -38//-38 -39//-39 
s 16384
f -43//-43 -33//-33 -32//-32 -31//-31 
s 24576
f -43//-43 -31//-31 -30//-30 -42//-42 
s 16384
f -44//-44 -29//-29 -33//-33 -43//-43 
s 98304
f -40//-40 -28//-28 -29//-29 -44//-44 
s 65536
f -27//-27 -28//-28 -40//-40 
s off
f -26//-26 -25//-25 -28//-28 -27//-27 
s 6
f -36//-36 -37//-37 -24//-24 -26//-26 
s 2
f -24//-24 -25//-25 -26//-26 
s 16
f -37//-37 -38//-38 -23//-23 -24//-24 
f -38//-38 -22//-22 -21//-21 -23//-23 
s 24
f -20//-20 -22//-22 -38//-38 -34//-34 
s 4096
f -26//-26 -27//-27 -40//-40 -36//-36 
s 2048
f -36//-36 -40//-40 -41//-41 -39//-39 
s 1024
f -39//-39 -41//-41 -45//-45 -35//-35 
s 512
f -42//-42 -19//-19 -35//-35 -45//-45 
f -34//-34 -35//-35 -19//-19 
s 256
f -28//-28 -25//-25 -24//-24 -29//-29 
s 128
f -29//-29 -24//-24 -23//-23 -33//-33 
s 64
f -33//-33 -23//-23 -21//-21 -32//-32 
s 32
f -21//-21 -22//-22 -18//-18 -32//-32 
f -32//-32 -18//-18 -31//-31 
s off
f -17//-17 -16//-16 -15//-15 
f -16//-16 -14//-14 -15//-15 
f -14//-14 -13//-13 -15//-15 
f -13//-13 -12//-12 -15//-15 
f -12//-12 -11//-11 -15//-15 
f -11//-11 -10//-10 -15//-15 
f -10//-10 -9//-9 -15//-15 
f -9//-9 -17//-17 -15//-15 
f -8//-8 -7//-7 -16//-16 -17//-17 
f -7//-7 -6//-6 -14//-14 -16//-16 
f -6//-6 -5//-5 -13//-13 -14//-14 
f -5//-5 -4//-4 -12//-12 -13//-13 
f -4//-4 -3//-3 -11//-11 -12//-12 
f -3//-3 -2//-2 -10//-10 -11//-11 
f -2//-2 -1//-1 -9//-9 -10//-10 
f -1//-1 -8//-8 -17//-17 -9//-9 
f -18//-18 -22//-22 -7//-7 -8//-8 
f -22//-22 -20//-20 -6//-6 -7//-7 
f -20//-20 -34//-34 -5//-5 -6//-6 
f -34//-34 -19//-19 -4//-4 -5//-5 
f -19//-19 -42//-42 -3//-3 -4//-4 
f -42//-42 -30//-30 -2//-2 -3//-3 
f -30//-30 -31//-31 -1//-1 -2//-2 
f -31//-31 -18//-18 -8//-8 -1//-1 
# 37 polygons - 12 triangles

